Video 
ID : 1 
Format : AVC 
Format/Info : Advanced Video Codec 
Format profile : High@L4.1 
Format settings, CABAC : Yes 
Format settings, ReFrames : 5 frames 
Codec ID : V_MPEG4/ISO/AVC 
Duration : 1h 58mn 
Bit rate : 8 106 Kbps 
Width : 1 920 pixels 
Height : 816 pixels 
Display aspect ratio : 2.35:1 
Frame rate mode : Constant 
Frame rate : 23.976 fps 
Color space : YUV 
Chroma subsampling : 4:2:0 
Bit depth : 8 bits 
Scan type : Progressive 
Bits/(Pixel*Frame) : 0.216 
Stream size : 6.53 GiB (82%) 
Writing library : x264 core 98 r1649 c54c47d 


Audio 
ID : 2 
Format : DTS 
Format/Info : Digital Theater Systems 
Codec ID : A_DTS 
Duration : 1h 58mn 
Bit rate mode : Constant 
Bit rate : 1 510 Kbps 
Channel(s) : 6 channels 
Channel positions : Front: L C R, Side: L R, LFE 
Sampling rate : 48.0 KHz 
Bit depth : 24 bits 
Compression mode : Lossy 
Stream size : 1.25 GiB (16%) 


NFO: 
http://img27.imageshack.us/img27/6044/1277743974kalifornia199.png

Thumbnails: 
http://img191.imageshack.us/img191/7742/kalifornia19931080pblur.png